<svg width="44" height="44" viewBox="0 0 44 44" fill="none" xmlns="http://www.w3.org/2000/svg">
<path d="M39.7651 0H4.23534C1.89623 0 0 1.89618 0 4.23523V39.7641C0 42.1032 1.89623 43.9994 4.23534 43.9994H39.7651C42.1043 43.9994 44.0005 42.1032 44.0005 39.7641V4.23523C44.0005 1.89618 42.1043 0 39.7651 0Z" fill="#151515"/>
<path fill-rule="evenodd" clip-rule="evenodd" d="M30.8236 18.5886V15.7651C30.8236 14.3533 31.7648 14.118 32.2354 14.118C32.9412 14.118 36.4707 14.118 36.4707 14.118V7.7652H30.8236C24.4705 7.7652 23.0588 12.471 23.0588 15.2945V18.5886H19.5293V23.0591V25.8826H23.2941C23.2941 34.1178 23.2941 44 23.2941 44H30.353C30.353 44 30.353 34.1178 30.353 25.8826H35.7648L36.0001 23.0591L36.4707 18.5886H30.8236Z" fill="#FEFEFE"/>
</svg>
