<svg width="44" height="44" viewBox="0 0 44 44" fill="none" xmlns="http://www.w3.org/2000/svg">
<path d="M39.7651 0H4.23534C1.89623 0 0 1.89618 0 4.23524V39.7642C0 42.1033 1.89623 43.9995 4.23534 43.9995H39.7651C42.1043 43.9995 44.0005 42.1033 44.0005 39.7642V4.23524C44.0005 1.89618 42.1043 0 39.7651 0Z" fill="#FEFEFE"/>
<path fill-rule="evenodd" clip-rule="evenodd" d="M30.8236 18.5885V15.765C30.8236 14.3533 31.7648 14.118 32.2354 14.118C32.9412 14.118 36.4707 14.118 36.4707 14.118V7.76514H30.8236C24.4705 7.76514 23.0588 12.471 23.0588 15.2944V18.5885H19.5293V23.059V25.8825H23.2941C23.2941 34.1177 23.2941 43.9999 23.2941 43.9999H30.353C30.353 43.9999 30.353 34.1177 30.353 25.8825H35.7648L36.0001 23.059L36.4707 18.5885H30.8236Z" fill="#151515"/>
</svg>
